{"asset":{"version":"2.0","generator":"babylon.js glTF exporter for 3dsmax 2018 v20210811.2"},"scene":0,"scenes":[{"nodes":[0,1,2,3,4,5,6,7,8]}],"nodes":[{"mesh":0,"scale":[2.770525,2.770525,2.770525],"name":"Plane001"},{"mesh":1,"translation":[0.0355110541,0.0,-1.0169102],"name":"Box001"},{"mesh":2,"translation":[1.16841781,0.0,0.0197785944],"rotation":[0.0,-0.7071068,0.0,0.7071067],"name":"Box002"},{"mesh":3,"translation":[-1.09739578,0.0,0.0197785944],"rotation":[0.0,-0.7071068,0.0,0.7071067],"name":"Box003"},{"mesh":4,"translation":[0.6894354,0.0,-1.23919857],"name":"Cylinder001"},{"mesh":5,"translation":[1.83458877,0.6207826,-1.80830455],"name":"Sphere001"},{"mesh":6,"translation":[1.400492,0.0,1.45998347],"name":"Teapot001"},{"mesh":7,"translation":[-1.430753,0.0,0.46351546],"name":"Teapot002"},{"mesh":8,"translation":[-0.004605577,0.114335321,0.70973],"name":"Torus001"}],"meshes":[{"primitives":[{"attributes":{"POSITION":1,"NORMAL":2,"TEXCOORD_0":3},"indices":0,"material":0}],"name":"Plane001"},{"primitives":[{"attributes":{"POSITION":5,"NORMAL":6,"TEXCOORD_0":7},"indices":4,"material":1}],"name":"Box001"},{"primitives":[{"attributes":{"POSITION":9,"NORMAL":10,"TEXCOORD_0":11},"indices":8,"material":1}],"name":"Box002"},{"primitives":[{"attributes":{"POSITION":13,"NORMAL":14,"TEXCOORD_0":15},"indices":12,"material":1}],"name":"Box003"},{"primitives":[{"attributes":{"POSITION":17,"NORMAL":18,"TEXCOORD_0":19},"indices":16,"material":2}],"name":"Cylinder001"},{"primitives":[{"attributes":{"POSITION":21,"NORMAL":22,"TEXCOORD_0":23},"indices":20,"material":3}],"name":"Sphere001"},{"primitives":[{"attributes":{"POSITION":25,"NORMAL":26,"TEXCOORD_0":27},"indices":24,"material":4}],"name":"Teapot001"},{"primitives":[{"attributes":{"POSITION":29,"NORMAL":30,"TEXCOORD_0":31},"indices":28,"material":2}],"name":"Teapot002"},{"primitives":[{"attributes":{"POSITION":33,"NORMAL":34,"TEXCOORD_0":35},"indices":32,"material":0}],"name":"Torus001"}],"accessors":[{"bufferView":0,"componentType":5123,"count":6,"type":"SCALAR","name":"accessorIndices"},{"bufferView":1,"componentType":5126,"count":4,"max":[2.16306615,0.0,1.96451354],"min":[-2.16306615,0.0,-1.96451354],"type":"VEC3","name":"accessorPositions"},{"bufferView":1,"byteOffset":48,"componentType":5126,"count":4,"type":"VEC3","name":"accessorNormals"},{"bufferView":2,"componentType":5126,"count":4,"type":"VEC2","name":"accessorUVs"},{"bufferView":0,"byteOffset":12,"componentType":5123,"count":36,"type":"SCALAR","name":"accessorIndices"},{"bufferView":1,"byteOffset":96,"componentType":5126,"count":24,"max":[-0.460800618,1.27029014,0.0481089763],"min":[-1.08479774,0.0,-0.0481089763],"type":"VEC3","name":"accessorPositions"},{"bufferView":1,"byteOffset":384,"componentType":5126,"count":24,"type":"VEC3","name":"accessorNormals"},{"bufferView":2,"byteOffset":32,"componentType":5126,"count":24,"type":"VEC2","name":"accessorUVs"},{"bufferView":0,"byteOffset":84,"componentType":5123,"count":36,"type":"SCALAR","name":"accessorIndices"},{"bufferView":1,"byteOffset":672,"componentType":5126,"count":24,"max":[-0.1993006,1.27029014,1.59370744],"min":[-1.08479774,0.0,1.49748945],"type":"VEC3","name":"accessorPositions"},{"bufferView":1,"byteOffset":960,"componentType":5126,"count":24,"type":"VEC3","name":"accessorNormals"},{"bufferView":2,"byteOffset":224,"componentType":5126,"count":24,"type":"VEC2","name":"accessorUVs"},{"bufferView":0,"byteOffset":156,"componentType":5123,"count":36,"type":"SCALAR","name":"accessorIndices"},{"bufferView":1,"byteOffset":1248,"componentType":5126,"count":24,"max":[-0.1993006,1.27029014,0.0481089763],"min":[-1.08479774,0.0,-0.0481090546],"type":"VEC3","name":"accessorPositions"},{"bufferView":1,"byteOffset":1536,"componentType":5126,"count":24,"type":"VEC3","name":"accessorNormals"},{"bufferView":2,"byteOffset":416,"componentType":5126,"count":24,"type":"VEC2","name":"accessorUVs"},{"bufferView":0,"byteOffset":228,"componentType":5123,"count":648,"type":"SCALAR","name":"accessorIndices"},{"bufferView":1,"byteOffset":1824,"componentType":5126,"count":154,"max":[0.3133263,1.48399949,0.3085662],"min":[-0.3133263,0.0,-0.308566183],"type":"VEC3","name":"accessorPositions"},{"bufferView":1,"byteOffset":3672,"componentType":5126,"count":154,"type":"VEC3","name":"accessorNormals"},{"bufferView":2,"byteOffset":608,"componentType":5126,"count":154,"type":"VEC2","name":"accessorUVs"},{"bufferView":0,"byteOffset":1524,"componentType":5123,"count":2880,"type":"SCALAR","name":"accessorIndices"},{"bufferView":1,"byteOffset":5520,"componentType":5126,"count":559,"max":[0.644525647,0.644525647,0.644525647],"min":[-0.644525647,-0.644525647,-0.644525647],"type":"VEC3","name":"accessorPositions"},{"bufferView":1,"byteOffset":12228,"componentType":5126,"count":559,"type":"VEC3","name":"accessorNormals"},{"bufferView":2,"byteOffset":1840,"componentType":5126,"count":559,"type":"VEC2","name":"accessorUVs"},{"bufferView":0,"byteOffset":7284,"componentType":5123,"count":3072,"type":"SCALAR","name":"accessorIndices"},{"bufferView":1,"byteOffset":18936,"componentType":5126,"count":630,"max":[0.9604567,0.882534444,0.560339332],"min":[-0.840509,0.0,-0.560339332],"type":"VEC3","name":"accessorPositions"},{"bufferView":1,"byteOffset":26496,"componentType":5126,"count":630,"type":"VEC3","name":"accessorNormals"},{"bufferView":2,"byteOffset":6312,"componentType":5126,"count":630,"type":"VEC2","name":"accessorUVs"},{"bufferView":0,"byteOffset":13428,"componentType":5123,"count":3072,"type":"SCALAR","name":"accessorIndices"},{"bufferView":1,"byteOffset":34056,"componentType":5126,"count":630,"max":[0.9372131,0.8611766,0.5467788],"min":[-0.820168138,0.0,-0.5467788],"type":"VEC3","name":"accessorPositions"},{"bufferView":1,"byteOffset":41616,"componentType":5126,"count":630,"type":"VEC3","name":"accessorNormals"},{"bufferView":2,"byteOffset":11352,"componentType":5126,"count":630,"type":"VEC2","name":"accessorUVs"},{"bufferView":0,"byteOffset":19572,"componentType":5123,"count":1728,"type":"SCALAR","name":"accessorIndices"},{"bufferView":1,"byteOffset":49176,"componentType":5126,"count":325,"max":[0.52360636,0.174781755,0.52360636],"min":[-0.52360636,-0.174781755,-0.52360636],"type":"VEC3","name":"accessorPositions"},{"bufferView":1,"byteOffset":53076,"componentType":5126,"count":325,"type":"VEC3","name":"accessorNormals"},{"bufferView":2,"byteOffset":16392,"componentType":5126,"count":325,"type":"VEC2","name":"accessorUVs"}],"bufferViews":[{"buffer":0,"byteLength":23028,"name":"bufferViewScalar"},{"buffer":0,"byteOffset":23028,"byteLength":56976,"byteStride":12,"name":"bufferViewFloatVec3"},{"buffer":0,"byteOffset":80004,"byteLength":18992,"byteStride":8,"name":"bufferViewFloatVec2"}],"buffers":[{"uri":"Test.bin","byteLength":98996}],"materials":[{"pbrMetallicRoughness":{"baseColorFactor":[0.5,0.5,0.5,1.0],"metallicFactor":0.0,"roughnessFactor":0.0},"doubleSided":true,"name":"Plastic","extras":{"babylonSeparateCullingPass":false}},{"pbrMetallicRoughness":{"baseColorFactor":[0.694117665,0.694117665,0.694117665,1.0],"metallicFactor":0.0},"doubleSided":true,"name":"Wall","extras":{"babylonSeparateCullingPass":false}},{"pbrMetallicRoughness":{"baseColorFactor":[0.5,0.5,0.5,1.0],"roughnessFactor":0.0},"doubleSided":true,"name":"Metal","extras":{"babylonSeparateCullingPass":false}},{"pbrMetallicRoughness":{"baseColorTexture":{"index":0},"metallicFactor":0.0},"alphaMode":"MASK","doubleSided":true,"name":"111","extras":{"babylonSeparateCullingPass":false}},{"pbrMetallicRoughness":{"baseColorFactor":[0.5,0.5,0.5,0.399999976],"metallicFactor":0.0,"roughnessFactor":0.0},"alphaMode":"BLEND","doubleSided":true,"name":"Glass","extras":{"babylonSeparateCullingPass":false}}],"textures":[{"sampler":0,"source":0,"name":"1_1_alpha_Map__13_1_1_alpha_Map__13_alpha_Map__1.png"}],"images":[{"uri":"1_1_alpha_Map__13_1_1_alpha_Map__13_alpha_Map__1.png"}],"samplers":[{"magFilter":9729,"minFilter":9987}]}