{"asset":{"version":"2.0","generator":"babylon.js glTF exporter for 3dsmax 2018 v20220316.2"},"scene":0,"scenes":[{"nodes":[0,1]}],"nodes":[{"mesh":0,"translation":[4.64086437,3.8795836,9.883429],"name":"A2_4_11F_MA"},{"mesh":1,"translation":[4.64086437,3.8795836,9.883429],"name":"A2_4_11F_MA001"}],"meshes":[{"primitives":[{"attributes":{"POSITION":1,"NORMAL":2},"indices":0,"material":0}],"name":"A2_4_11F_MA"},{"primitives":[{"attributes":{"POSITION":4,"NORMAL":5,"TEXCOORD_0":6},"indices":3,"material":1}],"name":"A2_4_11F_MA001"}],"accessors":[{"bufferView":0,"componentType":5123,"count":1308,"type":"SCALAR","name":"accessorIndices"},{"bufferView":1,"componentType":5126,"count":538,"max":[0.7483227,0.117463849,1.92944944],"min":[-0.748324,-0.117463551,-1.92944944],"type":"VEC3","name":"accessorPositions"},{"bufferView":1,"byteOffset":6456,"componentType":5126,"count":538,"type":"VEC3","name":"accessorNormals"},{"bufferView":0,"byteOffset":2616,"componentType":5123,"count":1296,"type":"SCALAR","name":"accessorIndices"},{"bufferView":1,"byteOffset":12912,"componentType":5126,"count":584,"max":[0.7454358,0.1145771,1.92656362],"min":[-0.745436966,-0.114576794,-1.92656243],"type":"VEC3","name":"accessorPositions"},{"bufferView":1,"byteOffset":19920,"componentType":5126,"count":584,"type":"VEC3","name":"accessorNormals"},{"bufferView":2,"componentType":5126,"count":584,"type":"VEC2","name":"accessorUVs"}],"bufferViews":[{"buffer":0,"byteLength":5208,"name":"bufferViewScalar"},{"buffer":0,"byteOffset":5208,"byteLength":26928,"byteStride":12,"name":"bufferViewFloatVec3"},{"buffer":0,"byteOffset":32136,"byteLength":4672,"byteStride":8,"name":"bufferViewFloatVec2"}],"buffers":[{"uri":"Test.bin","byteLength":36808}],"materials":[{"pbrMetallicRoughness":{"baseColorFactor":[0.8980393,0.9215687,0.90196085,0.199999988],"metallicFactor":0.0,"roughnessFactor":0.0},"alphaMode":"BLEND","doubleSided":true,"name":"A2_4_Green","extras":{"babylonSeparateCullingPass":false}},{"pbrMetallicRoughness":{"baseColorTexture":{"index":0},"metallicFactor":0.0,"roughnessFactor":0.450053632},"name":"Liquid"}],"textures":[{"sampler":0,"source":0,"name":"lavatile.jpg"}],"images":[{"uri":"lavatile.jpg"}],"samplers":[{"magFilter":9729,"minFilter":9987}]}